# xmcd CD database file
#
# Track frame offsets:
#	150
#	23787
#	53235
#	71179
#	95240
#	110965
#	137548
#	162588
#	186418
#	204619
#	221594
#	235293
#	267543
#	287845
#	304549
#	316822
#
# Disc length: 4645 seconds
#
# Revision: 1
# Processed by: cddbd v1.5.2PL0 Copyright (c) Steve Scherf et al.
# Submitted via: CDex 1.51
#
DISCID=02122310
DTITLE=Willie Colon - The Player Disk 1
DYEAR=2007
DGENRE=Salsa
TTITLE0=Fuego En El Barrio
TTITLE1=The Hustler
TTITLE2=El Malo
TTITLE3=El Titan
TTITLE4=Che-Che Cole
TTITLE5=Panamena
TTITLE6=La Murga
TTITLE7=Pirana
TTITLE8=Sonando Despierto
TTITLE9=Calle Luna, Calle Sol
TTITLE10=La Banda
TTITLE11=Junio '73
TTITLE12=Pena De Amor
TTITLE13=MC2
TTITLE14=Apartamento 21
TTITLE15=Juancito
EXTD=YEAR: 2007
EXTT0=
EXTT1=
EXTT2=
EXTT3=
EXTT4=
EXTT5=
EXTT6=
EXTT7=
EXTT8=
EXTT9=
EXTT10=
EXTT11=
EXTT12=
EXTT13=
EXTT14=
EXTT15=
PLAYORDER=
